# File created by Blade
# Date/Time:  Wed Apr 08 17:20:14 2015
#---------------------------------------------------------
:version 1.10
:name HOM
:units
  mass 1.0
  length 1.000000
  angle deg
:documentation
     Acclaim Skeleton File
:root
   axis xyz
   order TX TY TZ RX RY RZ
   position 0.000000 0.000000 0.000000
   orientation 0 0 0
:bonedata
   begin
      id 1
      name Spine_dum
      direction 0.000000 1.000000 0.000000
      length 5.893853
      axis 0.0 0.0 0.0 xyz
   end
   begin
      id 2
      name LeftUpLeg_dum
      direction 1.000000 0.000000 0.000000
      length 3.697939
      axis 0.0 0.0 0.0 xyz
   end
   begin
      id 3
      name RightUpLeg_dum
      direction -1.000000 0.000000 0.000000
      length 3.697939
      axis 0.0 0.0 0.0 xyz
   end
   begin
      id 4
      name Spine
      direction 0.000000 1.000000 0.000000
      length 0.000000
      axis 0.0 0.0 0.0 xyz
      dof rx ry rz
   end
   begin
      id 5
      name Spine_dum1
      direction 0.000000 1.000000 0.000000
      length 16.447146
      axis 0.0 0.0 0.0 xyz
   end
   begin
      id 6
      name Spine_dum2
      direction 0.000000 1.000000 0.000000
      length 10.900383
      axis 0.0 0.0 0.0 xyz
   end
   begin
      id 7
      name Spine_dum3
      direction 0.000000 1.000000 0.000000
      length 10.900383
      axis 0.0 0.0 0.0 xyz
   end
   begin
      id 8
      name Head
      direction 0.000000 1.000000 0.000000
      length 4.527550
      axis 0.0 0.0 0.0 xyz
      dof rx ry rz
   end
   begin
      id 9
      name LeftShoulder
      direction 1.000000 0.000000 0.000000
      length 8.219464
      axis 0.0 0.0 -90.0 xyz
      dof rx ry rz
   end
   begin
      id 10
      name LeftArm
      direction 1.000000 0.000000 0.000000
      length 11.094937
      axis 0.0 0.0 -90.0 xyz
      dof rx ry rz
   end
   begin
      id 11
      name LeftForeArm
      direction 1.000000 0.000000 0.000000
      length 9.103875
      axis 0.0 0.0 -90.0 xyz
      dof ry rz rx
   end
   begin
      id 12
      name LeftHand
      direction 0.000000 0.000000 0.000000
      length 0.000000
      axis 0.0 0.0 -90.0 xyz
      dof rx ry rz
   end
   begin
      id 13
      name LeftHand_dum1
      direction 0.000000 0.000000 0.000000
      length 0.000000
      axis 0.0 0.0 -90.0 xyz
   end
   begin
      id 14
      name LeftHand_dum2
      direction 1.000000 0.000000 0.000000
      length 3.937000
      axis 0.0 0.0 -90.0 xyz
   end
   begin
      id 15
      name LeftHandThumb1
      direction 0.000000 0.000000 1.000000
      length 3.937000
      axis 0.0 0.0 -90.0 xyz
      dof rx rz ry
   end
   begin
      id 16
      name RightShoulder
      direction -1.000000 0.000000 0.000000
      length 8.219464
      axis 0.0 0.0 90.0 xyz
      dof rx ry rz
   end
   begin
      id 17
      name RightArm
      direction -1.000000 0.000000 0.000000
      length 11.094937
      axis 0.0 0.0 90.0 xyz
      dof rx ry rz
   end
   begin
      id 18
      name RightForeArm
      direction -1.000000 0.000000 0.000000
      length 9.103875
      axis 0.0 0.0 90.0 xyz
      dof ry rz rx
   end
   begin
      id 19
      name RightHand
      direction 0.000000 0.000000 0.000000
      length 0.000000
      axis 0.0 0.0 90.0 xyz
      dof rx ry rz
   end
   begin
      id 20
      name RightHand_dum1
      direction 0.000000 0.000000 0.000000
      length 0.000000
      axis 0.0 0.0 90.0 xyz
   end
   begin
      id 21
      name RightHand_dum2
      direction -1.000000 0.000000 0.000000
      length 3.937000
      axis 0.0 0.0 90.0 xyz
   end
   begin
      id 22
      name RightHandThumb1
      direction 0.000000 0.000000 1.000000
      length 3.937000
      axis 0.0 0.0 90.0 xyz
      dof rx rz ry
   end
   begin
      id 23
      name LeftUpLeg
      direction 0.000000 -1.000000 0.000000
      length 16.181467
      axis 0.0 0.0 0.0 xyz
      dof rx ry rz
   end
   begin
      id 24
      name LeftLeg
      direction 0.000000 -1.000000 0.000000
      length 16.501392
      axis 0.0 0.0 0.0 xyz
      dof rx ry rz
   end
   begin
      id 25
      name LeftFoot
      direction 0.000000 -0.258819 0.965926
      length 6.408245
      axis 15.0 0.0 0.0 xyz
      dof rx ry rz
   end
   begin
      id 26
      name LeftToeBase
      direction 0.000000 0.000000 1.000000
      length 2.952750
      axis 0.0 0.0 0.0 xyz
      dof rx ry rz
   end
   begin
      id 27
      name RightUpLeg
      direction 0.000000 -1.000000 0.000000
      length 16.181467
      axis 0.0 0.0 0.0 xyz
      dof rx ry rz
   end
   begin
      id 28
      name RightLeg
      direction 0.000000 -1.000000 0.000000
      length 16.501392
      axis 0.0 0.0 0.0 xyz
      dof rx ry rz
   end
   begin
      id 29
      name RightFoot
      direction 0.000000 -0.258819 0.965926
      length 6.408245
      axis 15.0 0.0 0.0 xyz
      dof rx ry rz
   end
   begin
      id 30
      name RightToeBase
      direction 0.000000 0.000000 1.000000
      length 2.952750
      axis 0.0 0.0 0.0 xyz
      dof rx ry rz
   end
:hierarchy
   begin
      root Spine_dum LeftUpLeg_dum RightUpLeg_dum
      Spine_dum Spine
      LeftUpLeg_dum LeftUpLeg
      RightUpLeg_dum RightUpLeg
      Spine Spine_dum1 Spine_dum2 Spine_dum3
      Spine_dum1 Head
      Spine_dum2 LeftShoulder
      Spine_dum3 RightShoulder
      LeftShoulder LeftArm
      LeftArm LeftForeArm
      LeftForeArm LeftHand
      LeftHand LeftHand_dum1 LeftHand_dum2
      LeftHand_dum1 LeftHandThumb1
      RightShoulder RightArm
      RightArm RightForeArm
      RightForeArm RightHand
      RightHand RightHand_dum1 RightHand_dum2
      RightHand_dum1 RightHandThumb1
      LeftUpLeg LeftLeg
      LeftLeg LeftFoot
      LeftFoot LeftToeBase
      RightUpLeg RightLeg
      RightLeg RightFoot
      RightFoot RightToeBase
   end

# File created by Blade
# Date/Time:  Wed Apr 08 17:19:54 2015
# Frame Rate: 120.000 fps
#------------------------------------------------------
:FULLY-SPECIFIED
:DEGREES
213
root 6.528696 35.741301 1.531781 -9.261539 -69.527347 5.166662
Spine 8.820330 0.127046 5.571720
Head 21.675331 0.141802 8.978285
LeftShoulder -7.909133 19.333997 14.161638
LeftArm 16.507417 16.813618 -76.719527
LeftForeArm 17.788346 0.000000 21.480448
LeftHand -11.424895 -0.000000 -11.793091
LeftHandThumb1 -26.253704 0.000000 33.147579
RightShoulder -33.035159 -49.452429 22.771449
RightArm 52.325859 -12.967895 54.210180
RightForeArm 7.355147 -0.000000 7.873279
RightHand -1.506641 -0.000000 12.961648
RightHandThumb1 -24.326973 -0.000000 -32.862282
LeftUpLeg 9.373471 4.740683 -10.220053
LeftLeg 4.544941 -0.000000 -0.000000
LeftFoot -12.937923 10.480619 -3.370811
LeftToeBase 6.908109 -0.000000 -0.000000
RightUpLeg -19.273664 6.198032 0.675025
RightLeg 134.209335 -0.000000 -0.000000
RightFoot -20.090456 -5.011316 7.634803
RightToeBase -9.816308 -0.000000 0.000000
214
root 6.523209 35.740505 1.582353 -9.019904 -69.349837 4.906332
Spine 8.731605 0.088626 5.922032
Head 21.602209 -0.098606 8.957468
LeftShoulder -7.870141 19.310468 14.227573
LeftArm 16.476076 16.863500 -76.695388
LeftForeArm 17.737281 -0.000000 21.482116
LeftHand -11.431564 -0.000000 -11.845555
LeftHandThumb1 -26.253704 0.000000 33.147579
RightShoulder -33.010506 -49.463291 22.840570
RightArm 52.146714 -12.964286 54.349563
RightForeArm 7.201040 -0.000000 7.548765
RightHand -1.540431 -0.000000 12.784104
RightHandThumb1 -24.326973 -0.000000 -32.862282
LeftUpLeg 9.442624 4.609939 -10.215544
LeftLeg 4.518175 -0.000000 -0.000000
LeftFoot -12.918030 10.393042 -3.321403
LeftToeBase 6.786826 -0.000000 -0.000000
RightUpLeg -19.292657 6.015645 0.460756
RightLeg 134.216178 -0.000000 -0.000000
RightFoot -20.225600 -5.481089 7.188900
RightToeBase -9.174750 -0.000000 0.000000
215
root 6.518708 35.739377 1.632059 -8.785549 -69.176934 4.652736
Spine 8.652632 0.030400 6.276879
Head 21.497124 -0.284215 8.905117
LeftShoulder -7.856302 19.270474 14.272937
LeftArm 16.429573 16.881366 -76.680905
LeftForeArm 17.684427 -0.000000 21.459256
LeftHand -11.429972 -0.000000 -11.894863
LeftHandThumb1 -26.253704 0.000000 33.147579
RightShoulder -32.976477 -49.452496 22.887243
RightArm 52.002283 -12.983413 54.454133
RightForeArm 7.106949 -0.000000 7.202844
RightHand -1.533505 -0.000000 12.593385
RightHandThumb1 -24.326973 -0.000000 -32.862282
LeftUpLeg 9.501451 4.483983 -10.209409
LeftLeg 4.507727 -0.000000 -0.000000
LeftFoot -12.907480 10.349198 -3.283340
LeftToeBase 6.666236 -0.000000 -0.000000
RightUpLeg -19.284385 5.910213 0.274692
RightLeg 134.178183 -0.000000 -0.000000
RightFoot -20.329354 -5.539996 7.206666
RightToeBase -9.678961 -0.000000 0.000000
216
root 6.514588 35.737259 1.681862 -8.547476 -69.031425 4.402549
Spine 8.567263 0.008195 6.634499
Head 21.378574 -0.496479 8.862561
LeftShoulder -7.831612 19.238938 14.341409
LeftArm 16.377494 16.863615 -76.697008
LeftForeArm 17.601120 0.000000 21.428102
LeftHand -11.379859 -0.000000 -11.976081
LeftHandThumb1 -26.253704 0.000000 33.147579
RightShoulder -32.961562 -49.481219 22.968409
RightArm 51.896346 -12.971329 54.539119
RightForeArm 7.116996 -0.000000 6.842183
RightHand -1.486038 0.000000 12.342767
RightHandThumb1 -24.326973 -0.000000 -32.862282
LeftUpLeg 9.553381 4.403412 -10.201314
LeftLeg 4.492103 -0.000000 -0.000000
LeftFoot -12.903336 10.275807 -3.197554
LeftToeBase 6.647149 -0.000000 -0.000000
RightUpLeg -19.292100 5.836706 0.080794
RightLeg 134.125680 -0.000000 -0.000000
RightFoot -20.416409 -5.497499 7.220248
RightToeBase -9.637414 -0.000000 0.000000
217
root 6.512466 35.735224 1.734811 -8.293909 -68.895206 4.137589
Spine 8.481435 0.032721 7.019871
Head 21.243656 -0.692935 8.798415
LeftShoulder -7.747663 19.178113 14.409181
LeftArm 16.285322 16.759246 -76.748146
LeftForeArm 17.517295 0.000000 21.399339
LeftHand -11.341255 0.000000 -12.067051
LeftHandThumb1 -26.253704 0.000000 33.147579
RightShoulder -32.947182 -49.483974 23.054710
RightArm 51.781558 -12.939958 54.615390
RightForeArm 7.244078 -0.000000 6.441232
RightHand -1.456229 0.000000 12.200561
RightHandThumb1 -24.326973 -0.000000 -32.862282
LeftUpLeg 9.590301 4.322210 -10.197378
LeftLeg 4.494887 -0.000000 -0.000000
LeftFoot -12.908431 10.231283 -3.116060
LeftToeBase 6.603968 -0.000000 -0.000000
RightUpLeg -19.324392 5.801461 -0.122322
RightLeg 134.070703 -0.000000 -0.000000
RightFoot -20.478034 -5.485048 7.187003
RightToeBase -9.707406 -0.000000 0.000000
218
root 6.513534 35.732313 1.790164 -8.059123 -68.802795 3.891517
Spine 8.422254 0.088983 7.412833
Head 21.047543 -0.890927 8.738418
LeftShoulder -7.700892 19.158600 14.473861
LeftArm 16.293912 16.790242 -76.748147
LeftForeArm 17.354048 -0.000000 21.321604
LeftHand -11.333033 0.000000 -12.202156
LeftHandThumb1 -26.253704 0.000000 33.147579
RightShoulder -32.938875 -49.480522 23.145266
RightArm 51.684030 -12.801233 54.734790
RightForeArm 7.410012 -0.000000 6.050309
RightHand -1.381241 -0.000000 12.190340
RightHandThumb1 -24.326973 -0.000000 -32.862282
LeftUpLeg 9.616979 4.253072 -10.207070
LeftLeg 4.508818 -0.000000 -0.000000
LeftFoot -12.917046 10.253573 -3.036113
LeftToeBase 6.584884 -0.000000 -0.000000
RightUpLeg -19.375834 5.866191 -0.358429
RightLeg 134.029490 -0.000000 -0.000000
RightFoot -20.611350 -5.310093 7.372248
RightToeBase -9.631736 -0.000000 0.000000
219
root 6.513465 35.729563 1.837833 -7.755321 -68.737870 3.591959
Spine 8.338787 0.136316 7.816435
Head 20.886779 -0.994430 8.700225
LeftShoulder -7.657455 19.159020 14.524007
LeftArm 16.282726 16.802045 -76.724999
LeftForeArm 17.138852 -0.000000 21.255007
LeftHand -11.283851 -0.000000 -12.283096
LeftHandThumb1 -26.253704 0.000000 33.147579
RightShoulder -32.910231 -49.487286 23.245639
RightArm 51.614884 -12.660440 54.797314
RightForeArm 7.615244 -0.000000 5.689164
RightHand -1.354938 -0.000000 12.303952
RightHandThumb1 -24.326973 -0.000000 -32.862282
LeftUpLeg 9.626662 4.194886 -10.182904
LeftLeg 4.511362 -0.000000 -0.000000
LeftFoot -12.947285 10.259598 -2.953362
LeftToeBase 6.657983 -0.000000 -0.000000
RightUpLeg -19.445240 5.942348 -0.549247
RightLeg 133.978219 -0.000000 -0.000000
RightFoot -20.624167 -5.396735 7.072192
RightToeBase -10.181556 -0.000000 0.000000
220
root 6.517176 35.726460 1.889670 -7.535592 -68.693294 3.371737
Spine 8.285701 0.184253 8.197412
Head 20.689497 -1.044656 8.663887
LeftShoulder -7.598201 19.115081 14.594953
LeftArm 16.192924 16.824550 -76.742439
LeftForeArm 16.992110 -0.000000 21.237863
LeftHand -11.376992 -0.000000 -12.231216
LeftHandThumb1 -26.253704 0.000000 33.147579
RightShoulder -32.834835 -49.508077 23.323727
RightArm 51.551139 -12.460916 54.868202
RightForeArm 7.861242 0.000000 5.378927
RightHand -1.353193 0.000000 12.500090
RightHandThumb1 -24.326973 -0.000000 -32.862282
LeftUpLeg 9.633702 4.118824 -10.201039
LeftLeg 4.527113 -0.000000 -0.000000
LeftFoot -12.968957 10.277369 -2.900668
LeftToeBase 6.657299 -0.000000 -0.000000
RightUpLeg -19.536694 6.042745 -0.798711
RightLeg 133.985952 -0.000000 -0.000000
RightFoot -20.797025 -5.369042 7.215005
RightToeBase -9.120514 -0.000000 0.000000
221
root 6.522380 35.724868 1.939747 -7.265142 -68.676618 3.101554
Spine 8.234865 0.238377 8.611521
Head 20.511048 -1.037970 8.607685
LeftShoulder -7.531439 19.111910 14.655224
LeftArm 16.144613 16.795771 -76.768629
LeftForeArm 16.831679 -0.000000 21.191986
LeftHand -11.422835 0.000000 -12.263319
LeftHandThumb1 -26.253704 0.000000 33.147579
RightShoulder -32.706859 -49.495089 23.362129
RightArm 51.462140 -12.239624 54.945492
RightForeArm 7.900911 -0.000000 5.070316
RightHand -1.242226 -0.000000 12.526049
RightHandThumb1 -24.326973 -0.000000 -32.862282
LeftUpLeg 9.631080 4.055708 -10.194317
LeftLeg 4.542815 -0.000000 -0.000000
LeftFoot -12.990656 10.312406 -2.849136
LeftToeBase 6.694319 -0.000000 -0.000000
RightUpLeg -19.637138 6.213110 -1.036170
RightLeg 133.992918 -0.000000 -0.000000
RightFoot -20.864892 -5.511010 6.828614
RightToeBase -9.234201 -0.000000 0.000000
